<?xml version="1.0" standalone="no"?>
<!DOCTYPE svg PUBLIC "-//W3C//DTD SVG 20010904//EN"
 "http://www.w3.org/TR/2001/REC-SVG-20010904/DTD/svg10.dtd">
<svg version="1.0" xmlns="http://www.w3.org/2000/svg"
 width="1024.000000pt" height="678.000000pt" viewBox="0 0 1024.000000 678.000000"
 preserveAspectRatio="xMidYMid meet">

<g transform="translate(0.000000,678.000000) scale(0.100000,-0.100000)"
fill="#000000" stroke="none">
<path d="M2840 4430 l0 -850 125 0 125 0 2 556 3 556 590 -600 c325 -330 593
-600 598 -601 4 0 7 379 7 844 l0 845 -125 0 -125 0 0 -551 c0 -303 -3 -549
-7 -547 -5 2 -143 140 -308 308 -508 516 -878 890 -881 890 -2 0 -4 -382 -4
-850z"/>
<path d="M5560 5273 c0 -6 -82 -181 -181 -389 -415 -868 -619 -1296 -619
-1300 0 -3 59 -3 131 -2 105 2 134 6 140 18 5 8 47 95 93 193 l85 177 351 -2
351 -3 86 -192 85 -193 135 0 c104 0 134 3 130 13 -18 48 -771 1674 -778 1682
-6 5 -9 5 -9 -2z m128 -808 c62 -138 112 -254 112 -258 0 -4 -110 -7 -244 -7
l-244 0 100 213 c55 116 111 236 124 266 14 31 28 50 33 45 4 -5 58 -122 119
-259z"/>
<path d="M6912 5199 c-341 -57 -626 -338 -688 -679 -36 -199 4 -411 108 -573
238 -368 699 -495 1116 -307 l62 29 0 147 0 146 -22 -16 c-83 -61 -167 -110
-225 -133 -60 -24 -82 -27 -193 -27 -106 -1 -136 3 -198 23 -424 139 -550 682
-232 1000 115 115 251 172 415 173 142 1 259 -37 388 -125 l67 -47 0 143 0
143 -47 23 c-67 33 -146 59 -226 76 -74 16 -240 18 -325 4z"/>
<path d="M8160 5191 c-256 -56 -473 -234 -589 -483 -56 -119 -75 -222 -68
-372 7 -142 24 -211 78 -321 98 -197 289 -359 503 -424 204 -63 465 -42 649
50 l57 29 0 145 0 145 -62 -46 c-126 -93 -242 -134 -378 -134 -167 0 -312 61
-430 179 -119 119 -170 246 -170 416 0 180 54 310 181 436 82 83 174 135 277
159 69 16 205 16 273 0 72 -17 203 -78 262 -123 l47 -37 0 146 0 145 -64 29
c-119 54 -199 72 -346 76 -106 3 -154 0 -220 -15z"/>
<path d="M1450 4618 c0 -461 3 -574 15 -626 43 -184 198 -347 384 -406 355
-112 725 84 796 421 12 54 15 179 15 621 l0 552 -125 0 -124 0 -3 -567 c-3
-567 -3 -568 -26 -625 -29 -73 -96 -141 -170 -176 -50 -24 -70 -27 -157 -27
-93 0 -105 2 -167 33 -113 56 -169 142 -187 292 -7 49 -11 293 -11 577 l0 493
-120 0 -120 0 0 -562z"/>
<path d="M4470 5175 c0 -3 0 -362 0 -797 l0 -793 120 -3 120 -3 0 801 0 800
-120 0 c-66 0 -120 -2 -120 -5z"/>
<path d="M4285 3242 l0 -109 389 -6 c214 -4 651 -7 970 -7 l581 0 -3 -411 -2
-411 27 21 c16 11 240 195 498 410 l470 390 788 1 787 0 0 115 0 115 -824 0
-825 0 -331 -272 c-183 -150 -336 -274 -341 -276 -5 -2 -9 112 -9 272 l0 276
-1087 0 -1088 0 0 -108z"/>
<path d="M5344 1946 c-60 -26 -74 -57 -74 -165 0 -106 9 -130 60 -156 60 -31
149 -5 170 51 6 14 10 65 10 113 0 100 -16 132 -76 157 -41 17 -50 17 -90 0z
m92 -62 c25 -24 26 -30 23 -110 -4 -96 -16 -114 -75 -114 -49 0 -64 28 -64
123 0 69 3 81 25 102 31 32 59 32 91 -1z"/>
<path d="M6794 1946 c-59 -26 -74 -58 -74 -157 0 -105 9 -133 52 -159 61 -37
143 -18 173 40 20 38 19 40 -9 40 -14 0 -30 -10 -40 -25 -13 -20 -25 -25 -56
-25 -56 0 -70 24 -70 123 0 69 3 81 25 102 32 33 61 31 95 -5 29 -31 70 -41
70 -16 0 23 -42 68 -76 82 -41 17 -50 17 -90 0z"/>
<path d="M1450 1780 l0 -170 75 0 c98 0 139 17 154 63 10 29 9 42 -3 71 -8 20
-20 36 -26 36 -6 0 -2 12 9 26 23 29 27 80 8 105 -23 30 -56 39 -136 39 l-81
0 0 -170z m158 114 c50 -35 16 -84 -59 -84 l-49 0 0 50 0 50 43 0 c23 0 53 -7
65 -16z m10 -146 c7 -7 12 -24 12 -38 0 -38 -18 -50 -77 -50 l-53 0 0 50 0 50
53 0 c29 0 58 -5 65 -12z"/>
<path d="M1920 1780 l0 -170 25 0 25 0 0 170 0 170 -25 0 -25 0 0 -170z"/>
<path d="M2210 1780 l0 -170 110 0 110 0 0 25 c0 25 -1 25 -85 25 l-85 0 0 50
0 50 70 0 c68 0 70 1 70 25 0 24 -2 25 -71 25 l-70 0 3 48 3 47 83 3 c74 3 82
5 82 22 0 19 -7 20 -110 20 l-110 0 0 -170z"/>
<path d="M2650 1780 l0 -170 25 0 24 0 3 118 3 117 79 -117 c63 -95 84 -118
103 -118 l23 0 0 170 0 170 -25 0 c-24 0 -24 0 -27 -116 l-3 -117 -78 117
c-64 96 -81 116 -102 116 l-25 0 0 -170z"/>
<path d="M3112 1938 c3 -7 29 -84 58 -171 70 -211 73 -210 146 13 29 91 54
166 54 168 0 2 -12 2 -27 0 -26 -3 -30 -10 -62 -115 -19 -62 -37 -113 -41
-113 -3 0 -21 51 -40 113 -33 106 -37 112 -64 115 -21 3 -27 0 -24 -10z"/>
<path d="M3570 1780 l0 -170 110 0 110 0 0 25 c0 24 -2 24 -82 27 l-83 3 0 45
0 45 73 3 c69 3 73 4 70 25 -3 20 -9 22 -76 25 l-73 3 3 47 3 47 83 3 c74 3
82 5 82 22 0 19 -7 20 -110 20 l-110 0 0 -170z"/>
<path d="M4017 1783 l2 -168 25 -3 26 -3 0 118 0 118 76 -115 c58 -87 81 -116
100 -118 l24 -3 0 170 0 171 -25 0 -25 0 0 -117 0 -118 -78 117 c-64 98 -81
118 -102 118 l-25 0 2 -167z"/>
<path d="M4510 1779 l0 -170 28 3 27 3 3 168 2 167 -30 0 -30 0 0 -171z"/>
<path d="M4810 1780 l0 -170 70 0 c133 0 170 37 170 170 0 136 -32 170 -157
170 l-83 0 0 -170z m150 115 c34 -18 45 -57 38 -140 -6 -73 -26 -95 -90 -95
l-48 0 0 125 0 125 35 0 c20 0 49 -7 65 -15z"/>
<path d="M6090 1947 c0 -2 -27 -77 -60 -167 -33 -90 -60 -165 -60 -167 0 -2
11 -3 26 -3 19 0 28 8 40 35 14 35 14 35 79 35 65 0 65 0 79 -35 12 -28 21
-35 42 -35 21 0 25 3 19 18 -4 9 -32 86 -62 170 -50 138 -58 152 -79 152 -13
0 -24 -1 -24 -3z m53 -149 c13 -37 22 -70 19 -73 -11 -11 -92 -5 -92 8 0 14
42 138 46 134 1 -1 14 -32 27 -69z"/>
<path d="M7182 1783 l3 -168 25 0 c24 0 25 3 28 73 3 71 3 72 31 72 24 0 32
-9 65 -75 34 -68 40 -75 68 -75 16 0 28 4 26 8 -1 5 -18 37 -37 73 l-34 65 32
31 c42 43 43 93 2 134 -28 28 -33 29 -120 29 l-91 0 2 -167z m168 107 c44 -44
12 -90 -62 -90 l-48 0 0 55 0 55 45 0 c32 0 51 -6 65 -20z"/>
<path d="M7650 1780 l0 -170 110 0 110 0 0 25 c0 25 -1 25 -85 25 l-85 0 0 50
0 50 70 0 c68 0 70 1 70 25 0 24 -2 25 -71 25 l-70 0 3 48 3 47 83 3 c74 3 82
5 82 22 0 19 -7 20 -110 20 l-110 0 0 -170z"/>
<path d="M8151 1888 c-12 -35 -40 -111 -62 -170 l-38 -108 28 0 c23 0 30 6 37
33 10 32 10 32 77 35 l68 3 14 -36 c12 -27 21 -35 40 -35 14 0 25 2 25 5 0 4
-97 271 -115 318 -4 9 -17 17 -29 17 -18 0 -26 -12 -45 -62z m76 -92 c11 -36
18 -67 15 -70 -9 -9 -92 -7 -92 2 0 18 42 132 49 132 4 0 16 -29 28 -64z"/>
<path d="M8542 1783 l3 -168 25 0 c24 0 25 3 28 73 3 71 3 72 31 72 24 0 32
-9 65 -75 34 -68 40 -75 67 -75 16 0 29 2 29 5 0 3 -17 36 -37 74 l-38 68 33
28 c44 37 45 93 3 136 -28 28 -33 29 -120 29 l-91 0 2 -167z m166 111 c26 -18
28 -50 5 -76 -11 -13 -30 -18 -65 -18 l-48 0 0 55 0 55 43 0 c23 0 53 -7 65
-16z"/>
</g>
</svg>
